<svg width="1000" height="1000" viewBox="0 0 1000 1000" fill="none" xmlns="http://www.w3.org/2000/svg">
<rect width="1000" height="1000" fill="#F5F5F5"/>
<path d="M314.77 551.3L351.546 449.06H371.227L408.004 551.3H391.483L382.146 524.66H340.484L331.29 551.3H314.77ZM345.369 510.548H377.405L361.315 463.892L345.369 510.548ZM439.601 553.028C431.939 553.028 425.81 550.484 421.213 545.396C416.712 540.212 414.461 533.06 414.461 523.94V474.692H429.689V520.052C429.689 526.964 430.886 532.052 433.28 535.316C435.675 538.58 439.314 540.212 444.198 540.212C449.753 540.212 454.063 538.436 457.127 534.884C460.288 531.236 461.868 526.148 461.868 519.62V474.692H477.096V551.3H462.874L462.586 531.284L464.741 532.148C463.401 538.868 460.575 544.052 456.265 547.7C451.956 551.252 446.401 553.028 439.601 553.028ZM519.844 551.3C512.566 551.3 507.202 549.62 503.755 546.26C500.307 542.9 498.583 537.668 498.583 530.564V456.692H513.811V529.412C513.811 532.964 514.577 535.412 516.109 536.756C517.642 538.1 519.988 538.772 523.148 538.772H534.067V551.3H519.844ZM486.946 487.22V474.692H534.067V487.22H486.946ZM574.508 553.028C567.229 553.028 560.861 551.396 555.402 548.132C549.943 544.868 545.728 540.212 542.76 534.164C539.79 528.116 538.306 521.06 538.306 512.996C538.306 504.836 539.79 497.78 542.76 491.828C545.728 485.876 549.943 481.268 555.402 478.004C560.861 474.644 567.229 472.964 574.508 472.964C581.786 472.964 588.156 474.644 593.615 478.004C599.074 481.268 603.288 485.876 606.257 491.828C609.225 497.78 610.71 504.836 610.71 512.996C610.71 521.06 609.225 528.116 606.257 534.164C603.288 540.212 599.074 544.868 593.615 548.132C588.156 551.396 581.786 553.028 574.508 553.028ZM574.508 539.78C581.021 539.78 586.049 537.428 589.592 532.724C593.135 527.924 594.908 521.348 594.908 512.996C594.908 504.644 593.135 498.116 589.592 493.412C586.049 488.612 581.021 486.212 574.508 486.212C568.091 486.212 563.063 488.612 559.424 493.412C555.88 498.116 554.109 504.644 554.109 512.996C554.109 521.348 555.88 527.924 559.424 532.724C563.063 537.428 568.091 539.78 574.508 539.78ZM623.37 551.3V449.06H638.885V498.308L631.415 492.836H693.476L686.005 498.308V449.06H701.521V551.3H686.005V501.476L693.476 506.948H631.415L638.885 501.476V551.3H623.37ZM719.369 551.3V449.06H752.124C768.117 449.06 780.424 453.524 789.044 462.452C797.663 471.284 801.973 483.908 801.973 500.324C801.973 516.644 797.711 529.22 789.188 538.052C780.759 546.884 768.692 551.3 752.986 551.3H719.369ZM734.885 537.044H752.124C763.424 537.044 771.852 534.02 777.408 527.972C783.058 521.828 785.883 512.612 785.883 500.324C785.883 487.844 783.058 478.58 777.408 472.532C771.852 466.388 763.424 463.316 752.124 463.316H734.885V537.044ZM814.245 551.3V449.06H854.901C862.18 449.06 868.453 450.308 873.72 452.804C878.988 455.3 883.058 458.852 885.931 463.46C888.804 468.068 890.241 473.54 890.241 479.876C890.241 484.484 889.188 488.612 887.08 492.26C885.069 495.908 882.34 498.836 878.892 501.044C875.54 503.156 871.949 504.356 868.117 504.644L867.399 503.348C873.816 503.348 878.797 504.836 882.34 507.812C885.883 510.692 887.942 515.252 888.517 521.492L891.246 551.3H875.588L873.145 523.508C872.858 519.38 871.47 516.356 868.979 514.436C866.489 512.42 862.419 511.412 856.768 511.412H829.76V551.3H814.245ZM829.76 497.156H855.188C861.03 497.156 865.628 495.716 868.979 492.836C872.427 489.86 874.151 485.684 874.151 480.308C874.151 474.836 872.427 470.66 868.979 467.78C865.531 464.804 860.503 463.316 853.895 463.316H829.76V497.156Z" fill="black"/>
<path d="M215.15 410V508.696L117.957 562.475V463.779L215.15 410Z" fill="#C1C1C1"/>
<path d="M239.002 424.487V523.18L141.809 576.962V478.268L239.002 424.487Z" fill="#898989"/>
<path d="M263.209 437.525V536.221L166.016 590V491.304L263.209 437.525Z" fill="url(#paint0_linear_708_7348)"/>
<defs>
<linearGradient id="paint0_linear_708_7348" x1="166.016" y1="513.765" x2="263.209" y2="513.765" gradientUnits="userSpaceOnUse">
<stop/>
<stop offset="1" stop-color="#757575"/>
</linearGradient>
</defs>
</svg>
