<svg width="446" height="100" viewBox="0 0 446 100" fill="none" xmlns="http://www.w3.org/2000/svg">
<path d="M119.734 78.5L140.237 21.7H151.21L171.713 78.5H162.502L157.296 63.7H134.07L128.945 78.5H119.734ZM136.794 55.86H154.654L145.683 29.94L136.794 55.86ZM189.328 79.46C185.057 79.46 181.639 78.0465 179.076 75.22C176.567 72.34 175.312 68.3665 175.312 63.3V35.94H183.802V61.14C183.802 64.98 184.469 67.8065 185.804 69.62C187.139 71.4335 189.168 72.34 191.891 72.34C194.988 72.34 197.39 71.3535 199.099 69.38C200.861 67.3535 201.742 64.5265 201.742 60.9V35.94H210.231V78.5H202.302L202.142 67.38L203.344 67.86C202.596 71.5935 201.021 74.4735 198.618 76.5C196.216 78.4735 193.119 79.46 189.328 79.46ZM234.064 78.5C230.006 78.5 227.016 77.5665 225.093 75.7C223.171 73.8335 222.21 70.9265 222.21 66.98V25.94H230.7V66.34C230.7 68.3135 231.127 69.6735 231.981 70.42C232.836 71.1665 234.144 71.54 235.906 71.54H241.992V78.5H234.064ZM215.723 42.9V35.94H241.992V42.9H215.723ZM264.539 79.46C260.481 79.46 256.93 78.5535 253.887 76.74C250.843 74.9265 248.494 72.34 246.839 68.98C245.184 65.62 244.356 61.7 244.356 57.22C244.356 52.6865 245.184 48.7667 246.839 45.46C248.494 42.1534 250.843 39.5934 253.887 37.78C256.93 35.9134 260.481 34.98 264.539 34.98C268.596 34.98 272.147 35.9134 275.191 37.78C278.234 39.5934 280.583 42.1534 282.239 45.46C283.893 48.7667 284.721 52.6865 284.721 57.22C284.721 61.7 283.893 65.62 282.239 68.98C280.583 72.34 278.234 74.9265 275.191 76.74C272.147 78.5535 268.596 79.46 264.539 79.46ZM264.539 72.1C268.169 72.1 270.972 70.7935 272.948 68.18C274.923 65.5135 275.911 61.86 275.911 57.22C275.911 52.58 274.923 48.9534 272.948 46.34C270.972 43.6734 268.169 42.34 264.539 42.34C260.961 42.34 258.158 43.6734 256.129 46.34C254.154 48.9534 253.166 52.58 253.166 57.22C253.166 61.86 254.154 65.5135 256.129 68.18C258.158 70.7935 260.961 72.1 264.539 72.1ZM291.779 78.5V21.7H300.429V49.06L296.264 46.02H330.863L326.698 49.06V21.7H335.348V78.5H326.698V50.82L330.863 53.86H296.264L300.429 50.82V78.5H291.779ZM345.299 78.5V21.7H363.559C372.476 21.7 379.337 24.18 384.142 29.14C388.948 34.0467 391.35 41.06 391.35 50.18C391.35 59.2465 388.974 66.2335 384.222 71.14C379.524 76.0465 372.796 78.5 364.04 78.5H345.299ZM353.948 70.58H363.559C369.859 70.58 374.558 68.9 377.655 65.54C380.805 62.1265 382.38 57.0065 382.38 50.18C382.38 43.2467 380.805 38.1 377.655 34.74C374.558 31.3267 369.859 29.62 363.559 29.62H353.948V70.58ZM398.192 78.5V21.7H420.857C424.916 21.7 428.413 22.3934 431.349 23.78C434.286 25.1667 436.555 27.14 438.157 29.7C439.759 32.26 440.56 35.3 440.56 38.82C440.56 41.38 439.972 43.6734 438.798 45.7C437.676 47.7267 436.155 49.3534 434.232 50.58C432.364 51.7535 430.362 52.42 428.226 52.58L427.825 51.86C431.403 51.86 434.179 52.6865 436.155 54.34C438.13 55.94 439.278 58.4735 439.598 61.94L441.12 78.5H432.39L431.029 63.06C430.869 60.7665 430.095 59.0865 428.706 58.02C427.318 56.9 425.049 56.34 421.899 56.34H406.842V78.5H398.192ZM406.842 48.42H421.018C424.275 48.42 426.838 47.62 428.706 46.02C430.628 44.3667 431.589 42.0467 431.589 39.06C431.589 36.02 430.628 33.7 428.706 32.1C426.784 30.4467 423.981 29.62 420.297 29.62H406.842V48.42Z" fill="white"/>
<path d="M64.197 0V54.831L10.0117 84.7085V29.8771L64.197 0Z" fill="#C1C1C1"/>
<path d="M77.4941 8.04834V62.878L23.3086 92.7565V37.9268L77.4941 8.04834Z" fill="#898989"/>
<path d="M90.9902 15.2917V70.123L36.8047 100V45.1689L90.9902 15.2917Z" fill="url(#paint0_linear_710_116)"/>
<defs>
<linearGradient id="paint0_linear_710_116" x1="36.8047" y1="57.647" x2="90.9902" y2="57.647" gradientUnits="userSpaceOnUse">
<stop/>
<stop offset="1" stop-color="#757575"/>
</linearGradient>
</defs>
</svg>
