<svg width="380" height="100" viewBox="0 0 380 100" fill="none" xmlns="http://www.w3.org/2000/svg">
<path d="M379.304 60.0177C379.185 60.673 379.093 61.3328 378.962 61.9852C378.282 65.3605 377.043 68.5075 375.098 71.3617C372.227 75.5755 368.351 78.4697 363.485 79.9523C358.028 81.6144 352.531 81.6011 347.076 79.916C342.258 78.4274 338.453 75.5236 335.6 71.3743C333.232 67.93 331.939 64.0832 331.364 59.968C330.923 56.8188 330.907 53.6629 331.254 50.5114C331.682 46.6179 332.77 42.909 334.812 39.5462C338.111 34.1144 342.846 30.5856 349.079 29.1927C353.864 28.1229 358.649 28.2111 363.35 29.656C368.366 31.1973 372.352 34.1789 375.257 38.5654C377.418 41.8303 378.657 45.4458 379.257 49.2964C379.283 49.4669 379.287 49.6455 379.345 49.8042C379.712 55.3494 379.328 59.8864 379.304 60.0177ZM343.121 54.9684C343.164 56.4422 343.255 58.0442 343.547 59.6285C343.992 62.0482 344.689 64.3805 346.054 66.4599C347.389 68.4927 349.1 70.0747 351.447 70.885C353.038 71.4343 354.672 71.5596 356.339 71.4677C359.08 71.3157 361.387 70.2519 363.264 68.2377C365.488 65.8505 366.514 62.9163 367.095 59.7967C367.572 57.2347 367.657 54.6459 367.4 52.0468C367.133 49.3468 366.517 46.7432 365.3 44.3064C364.484 42.6725 363.37 41.2706 361.934 40.1297C359.962 38.5632 357.674 38.0265 355.214 38.0517C353.465 38.0695 351.775 38.3816 350.216 39.2134C347.632 40.5923 345.984 42.7896 344.869 45.4303C343.602 48.4349 343.168 51.6012 343.121 54.9684Z" fill="white"/>
<path d="M179.074 80.1176C178.868 80.2125 178.645 80.1628 178.429 80.1628C174.549 80.1665 170.671 80.1658 166.791 80.165C166.108 80.165 166.107 80.1636 165.886 79.5045C164.161 74.3626 162.437 69.2199 160.712 64.0779C160.49 63.4144 160.49 63.4122 159.811 63.4115C151.781 63.4107 143.75 63.4107 135.72 63.4115C135.011 63.4115 135.013 63.4137 134.777 64.1202C133.057 69.2629 131.334 74.4048 129.619 79.549C129.497 79.913 129.421 80.1851 128.903 80.1814C124.826 80.1532 120.749 80.165 116.672 80.1643C116.599 80.1643 116.525 80.1495 116.449 80.1413C116.332 79.8744 116.51 79.6595 116.587 79.4422C120.695 67.7112 124.811 55.9832 128.926 44.2544C132.598 33.7837 136.269 23.3123 139.943 12.8423C140.227 12.0313 140.037 12.164 140.907 12.1625C145.478 12.1558 150.049 12.1595 154.621 12.1595C155.306 12.1595 155.307 12.161 155.537 12.8164C162.751 33.3612 169.965 53.9052 177.179 74.45C177.792 76.1952 178.402 77.941 179.016 79.6861C179.065 79.8248 179.141 79.9567 179.074 80.1176ZM157.123 53.4782C157.066 53.2603 157.025 53.069 156.963 52.8844C154.05 44.1633 151.136 35.4429 148.212 26.7254C148.129 26.4808 148.175 26.0804 147.725 26.0975C147.286 26.1138 147.344 26.5112 147.262 26.7551C144.352 35.4265 141.456 44.1025 138.56 52.7791C138.486 53.0008 138.343 53.2143 138.41 53.4775C144.647 53.4782 150.869 53.4782 157.123 53.4782Z" fill="white"/>
<path d="M305.357 57.9501C299.772 57.9501 294.188 57.9501 288.604 57.9501C288.48 57.9501 288.357 57.9478 288.233 57.9501C287.662 57.9604 287.67 57.9604 287.703 58.5179C287.8 60.1734 287.988 61.8117 288.524 63.3937C289.981 67.6883 292.865 70.4357 297.32 71.424C299.869 71.9889 302.422 71.937 304.932 71.1586C307.764 70.2808 309.89 68.569 311.125 65.8276C311.409 65.1982 311.409 65.2145 312.104 65.2953C314.483 65.5711 316.864 65.835 319.244 66.1011C320.201 66.2086 321.159 66.3065 322.116 66.4162C322.543 66.4651 322.569 66.4977 322.449 66.9374C321.554 70.2059 319.91 73.0282 317.406 75.3271C313.98 78.4712 309.891 80.1592 305.326 80.8027C302.498 81.2015 299.662 81.2571 296.828 80.9376C290.747 80.2526 285.538 77.8336 281.56 73.0705C279.227 70.2756 277.722 67.0523 276.831 63.5346C275.787 59.4179 275.607 55.2464 276.025 51.0326C276.355 47.7099 277.165 44.5192 278.622 41.5145C281.686 35.2035 286.544 31.0023 293.388 29.272C297.751 28.1689 302.154 28.2082 306.511 29.3558C312.552 30.9467 317.126 34.4354 320.06 40.0089C321.59 42.9134 322.367 46.0278 322.779 49.2571C323.127 51.9875 323.056 54.7304 323.06 57.4712C323.061 57.9434 323.045 57.9486 322.405 57.9486C318.205 57.9501 314.004 57.9493 309.803 57.9493C308.322 57.9501 306.839 57.9501 305.357 57.9501ZM299.617 49.8398C302.656 49.8398 305.695 49.8398 308.733 49.8398C309.524 49.8398 310.315 49.8264 311.105 49.8457C311.445 49.8539 311.576 49.7775 311.562 49.3957C311.526 48.4045 311.433 47.4223 311.184 46.4637C310.405 43.4665 308.749 41.0905 306.105 39.4484C304.315 38.3371 302.327 37.9109 300.242 37.8775C297.954 37.8412 295.764 38.2497 293.784 39.4506C291.216 41.0089 289.487 43.2663 288.464 46.0715C288.074 47.142 287.86 48.2548 287.761 49.3928C287.728 49.7708 287.854 49.8828 288.203 49.842C288.349 49.825 288.498 49.839 288.647 49.839C292.305 49.8398 295.961 49.8398 299.617 49.8398Z" fill="white"/>
<path d="M222.125 29.2555C222.334 29.1228 222.534 29.1761 222.724 29.1761C226.529 29.1724 230.334 29.1732 234.138 29.1739C234.789 29.1739 234.792 29.1761 234.981 29.7996C238.741 42.1837 242.502 54.5686 246.262 66.9534C246.312 67.1188 246.371 67.2818 246.411 67.4486C246.454 67.6229 246.565 67.6814 246.732 67.6911C246.903 67.7007 247.018 67.6377 247.071 67.4746C247.148 67.2403 247.225 67.0061 247.297 66.7711C251.048 54.4611 254.8 42.1511 258.549 29.8404C258.796 29.0301 258.686 29.1776 259.437 29.1761C263.241 29.1695 267.047 29.1732 270.851 29.1732C271.022 29.1732 271.192 29.1732 271.359 29.1732C271.429 29.4475 271.304 29.6417 271.231 29.8463C265.604 45.6702 259.978 61.4942 254.347 77.3166C253.09 80.8484 251.87 84.3942 250.536 87.8963C249.277 91.2042 247.305 94.0539 244.563 96.3254C242.486 98.0461 240.086 99.101 237.443 99.5984C234.898 100.077 232.339 100.122 229.775 99.7637C228.525 99.5895 227.314 99.2492 226.121 98.8437C225.594 98.6643 225.592 98.6525 225.745 98.1165C226.436 95.6982 227.131 93.2814 227.824 90.8639C227.953 90.4139 228.071 89.9602 228.205 89.511C228.352 89.0165 228.36 89.0069 228.874 89.147C230.264 89.5265 231.675 89.7378 233.118 89.683C234.647 89.6252 236.039 89.227 237.126 88.0654C238.156 86.9645 238.843 85.6605 239.376 84.2682C239.693 83.4394 239.972 82.595 240.299 81.7706C240.454 81.3799 240.441 81.0315 240.301 80.6401C238.81 76.4597 237.332 72.274 235.85 68.0906C231.339 55.3522 226.828 42.613 222.318 29.8737C222.247 29.6684 222.188 29.4578 222.125 29.2555Z" fill="white"/>
<path d="M216.524 39.7879C215.238 39.4461 213.988 39.3216 212.738 39.2067C210.056 38.959 207.448 39.2178 205.066 40.5915C202.043 42.3344 200.182 44.8979 199.689 48.4015C199.577 49.1888 199.56 49.9761 199.56 50.7657C199.557 60.2029 199.558 69.641 199.558 79.0782C199.558 79.2265 199.557 79.3748 199.558 79.5231C199.561 80.1873 199.6 80.168 198.913 80.1673C195.355 80.165 191.798 80.165 188.24 80.1673C187.511 80.1673 187.585 80.1814 187.585 79.4593C187.585 69.5275 187.585 59.5958 187.585 49.664C187.585 43.1417 187.585 36.6194 187.585 30.097C187.585 29.9488 187.603 29.7975 187.581 29.653C187.519 29.2334 187.734 29.1681 188.095 29.1689C191.628 29.1785 195.16 29.1726 198.694 29.1763C199.189 29.177 199.198 29.1882 199.199 29.7286C199.202 32.0512 199.2 34.3731 199.2 36.6957C199.2 36.8685 199.19 37.0427 199.203 37.2147C199.214 37.3711 199.127 37.5764 199.38 37.6372C199.67 37.7062 199.772 37.5305 199.851 37.2992C200.285 36.033 200.846 34.829 201.621 33.7318C203.691 30.805 206.564 29.1882 210.053 28.6151C212.07 28.2837 214.091 28.4728 216.108 28.6922C216.501 28.7352 216.584 28.899 216.582 29.2564C216.571 32.6658 216.575 36.0752 216.573 39.4847C216.574 39.5566 216.551 39.6285 216.524 39.7879Z" fill="white"/>
<path d="M91.4816 4.63042C91.4415 2.60656 90.1405 0.866629 88.2078 0.240936C87.5636 0.032619 86.903 0 86.2336 0C59.2792 0.00296537 32.3247 0.00222394 5.37028 0.00222394C5.14788 0.00222394 4.92547 -0.00296564 4.70307 0.00667181C2.68217 0.0919261 1.00378 1.33886 0.341017 3.23966C0.285416 3.39979 0.303209 3.58661 0.172733 3.72005C0.0985986 3.79641 0.0504112 3.73043 0 3.68447C0 31.7072 0 59.7299 0 87.7526C0.355844 87.5703 0.258728 87.9083 0.300243 88.0358C0.700568 89.2672 1.45896 90.2005 2.58951 90.8299C3.4376 91.3022 4.36057 91.3934 5.31171 91.3926C32.3158 91.3889 59.3192 91.3897 86.3233 91.3882C86.6191 91.3882 86.9171 91.383 87.2114 91.3556C89.2798 91.1598 90.8937 89.7291 91.3696 87.7074C91.4905 87.1929 91.4823 86.6784 91.4823 86.161C91.4838 59.2065 91.4838 32.2521 91.4838 5.29763C91.4838 5.07523 91.486 4.85282 91.4816 4.63042ZM67.64 69.5305C67.64 69.8003 67.64 70.0701 67.64 70.4134C67.4651 70.383 67.3813 70.3919 67.3287 70.3556C66.1366 69.5438 64.8889 68.8195 63.7532 67.9173C62.3809 66.8283 60.9398 65.8245 59.5327 64.7792C55.2604 61.6062 51.0421 58.3636 46.832 55.1091C46.6756 54.9883 46.5199 54.8667 46.3568 54.7555C45.9884 54.5027 45.6148 54.5086 45.2552 54.7689C44.955 54.9861 44.6695 55.2226 44.3708 55.442C43.1713 56.3242 41.9184 57.1426 40.779 58.0967C38.4682 60.0316 36.0166 61.779 33.6258 63.6079C30.7842 65.7815 27.9189 67.924 24.9691 69.9515C24.6963 70.1391 24.4383 70.3882 24.0766 70.4067C23.9194 70.1502 23.9831 69.8989 23.9831 69.6609C23.9824 59.5572 23.9854 49.4534 23.9891 39.3489C23.9891 39.0035 23.9824 38.6632 24.1359 38.3326C24.2107 38.171 24.2804 38.0145 24.4228 37.9152C26.7335 36.3065 28.8382 34.4368 31.0407 32.6909C33.7503 30.5433 36.4281 28.3556 39.1147 26.1783C40.005 25.4569 40.8331 24.6644 41.745 23.9654C42.172 23.6384 42.6227 23.3463 43.046 23.0172C43.6828 22.522 44.2833 21.9852 44.889 21.453C45.5777 20.848 46.0588 20.8443 46.7787 21.4285C51.1711 24.9921 55.5584 28.5617 59.9479 32.1298C62.2282 33.9839 64.4975 35.8528 66.7971 37.6831C67.3909 38.1554 67.6467 38.6662 67.6452 39.4409C67.6252 49.4705 67.6363 59.5008 67.64 69.5305Z" fill="white"/>
<path d="M33.377 47.7099C33.377 45.8328 33.3911 43.955 33.3674 42.0787C33.3614 41.5864 33.5112 41.2595 33.9041 40.9518C35.7938 39.4699 37.6464 37.9412 39.5375 36.4608C41.4902 34.9321 43.4755 33.4465 45.4349 31.9267C45.7982 31.645 46.0569 31.7792 46.3542 32.0053C47.6708 33.0061 48.9948 33.9988 50.3137 34.9966C52.9062 36.9582 55.4942 38.9265 58.0911 40.8822C58.5782 41.2491 58.8028 41.6628 58.7932 42.3115C58.7353 46.0152 58.7294 49.7197 58.7064 53.4242C58.7057 53.548 58.7153 53.6725 58.6997 53.7941C58.6493 54.1981 58.3891 54.3434 58.0229 54.1588C57.8479 54.0706 57.6952 53.9394 57.5344 53.8245C53.9996 51.3002 50.4657 48.776 46.9309 46.2517C46.73 46.1079 46.5225 45.9729 46.3297 45.8195C45.9843 45.5444 45.6773 45.5845 45.3296 45.8469C44.0879 46.7832 42.8284 47.698 41.5785 48.6232C39.2165 50.3721 36.8569 52.1231 34.4964 53.8734C34.4764 53.8883 34.4579 53.9046 34.4379 53.9186C34.1969 54.0803 33.976 54.342 33.6454 54.1974C33.2932 54.0439 33.3844 53.6999 33.3837 53.416C33.3785 51.5145 33.3807 49.6122 33.3807 47.7106C33.3785 47.7099 33.3777 47.7099 33.377 47.7099Z" fill="white"/>
</svg>
