<svg width="367" height="100" viewBox="0 0 367 100" fill="none" xmlns="http://www.w3.org/2000/svg">
<path d="M0 20.6498L21.8688 38.1615L53.7572 18.4713L31.6269 0L0 20.6498Z" fill="white"/>
<path d="M31.6269 76.3242L53.7572 57.8519L21.8688 38.1616L0 55.6744L31.6269 76.3242Z" fill="white"/>
<path d="M75.8881 76.3242L107.514 55.6744L85.6463 38.1616L53.7578 57.8519L75.8881 76.3242Z" fill="white"/>
<path d="M75.8881 0L53.7578 18.4713L85.6463 38.1615L107.514 20.6498L75.8881 0Z" fill="white"/>
<path d="M85.5169 80.994V74.0431L76.0203 80.2436L53.8238 61.8257L31.6294 80.2436L22.1328 74.0431V80.994L53.8238 100L85.5169 80.994Z" fill="white"/>
<path d="M123.617 76.2867H138.238C142.499 76.2867 148.515 76.2867 153.447 72.4505C159.464 67.865 162.555 58.5252 162.555 48.0989C162.555 20.7469 145.256 20.6626 136.734 20.6626H123.617V76.2867ZM135.818 30.2542H137.904C142.835 30.2542 149.604 30.8381 149.604 47.9324C149.604 66.1123 142.752 66.6972 137.904 66.6972H135.818V30.2542Z" fill="white"/>
<path d="M166.754 35.174V76.2868H178.2V58.5254C178.2 55.3552 178.2 45.849 186.637 45.849C187.057 45.849 187.556 45.849 188.558 46.0155V34.8409C187.975 34.6744 187.392 34.5901 186.553 34.5901C179.87 34.5901 177.864 41.5965 176.862 45.0986V35.175L166.754 35.174Z" fill="white"/>
<path d="M206.909 34.2559C194.628 34.2559 190.117 42.8463 190.117 55.6892C190.117 68.9484 194.961 77.1203 206.827 77.1203C218.859 77.1203 223.622 68.8662 223.622 55.6892C223.622 42.8463 219.111 34.2559 206.909 34.2559ZM206.909 42.2624C210.421 42.2624 211.756 45.0974 211.756 55.6892C211.756 66.6972 210.253 69.117 206.909 69.117C203.484 69.117 201.981 66.614 201.981 55.6892C201.981 45.5991 203.151 42.2624 206.827 42.2624H206.909Z" fill="white"/>
<path d="M227.02 35.174V90.2143H238.3V73.2865C239.553 74.6196 241.642 76.8697 246.154 76.8697C259.271 76.8697 260.108 61.0253 260.108 55.1888C260.108 48.2678 258.771 41.8453 254.759 37.7593C252.756 35.7579 249.663 34.5891 246.906 34.5891C241.308 34.5891 239.051 38.6751 237.631 41.3447V35.174H227.02ZM238.3 51.6856C238.3 48.0169 238.3 42.1804 243.48 42.1804C247.908 42.1804 248.243 47.9337 248.243 55.1888C248.243 63.8624 247.826 68.9486 243.146 68.9486C238.301 68.9486 238.301 65.4454 238.301 59.5245L238.3 51.6856Z" fill="white"/>
<path d="M263.516 20.6626V76.2867H270.285C271.203 73.3684 271.622 72.5348 272.458 70.9497C273.459 73.0344 275.382 77.1203 281.985 77.1203C284.157 77.1203 286.412 76.7041 288.669 75.5374C296.19 71.6179 296.691 59.2756 296.691 55.4383C296.691 45.5158 293.516 34.5889 283.403 34.5889C278.475 34.5889 276.221 37.2585 274.798 39.0111V20.6626H263.516ZM274.797 49.6851C274.797 47.6005 274.797 45.5158 276.137 43.9297C276.971 42.8463 278.308 42.1802 279.812 42.1802C283.07 42.1802 284.824 44.932 284.824 55.7724C284.824 66.3642 283.239 69.1981 279.643 69.1981C274.796 69.1981 274.796 63.8622 274.796 59.1913V49.6851H274.797Z" fill="white"/>
<path d="M316.359 34.2559C304.074 34.2559 299.562 42.8463 299.562 55.6892C299.562 68.9484 304.411 77.1203 316.275 77.1203C328.306 77.1203 333.069 68.8662 333.069 55.6892C333.069 42.8463 328.556 34.2559 316.359 34.2559ZM316.359 42.2624C319.865 42.2624 321.204 45.0974 321.204 55.6892C321.204 66.6972 319.701 69.117 316.359 69.117C312.932 69.117 311.426 66.614 311.426 55.6892C311.426 45.5991 312.598 42.2624 316.275 42.2624H316.359Z" fill="white"/>
<path d="M332.625 35.1738L343.238 55.2729L331.039 76.2878H340.98L347.916 63.9465L353.932 76.2878H366.382L354.098 53.2715L364.708 35.1749H354.768L349.503 44.6811L345.075 35.1749L332.625 35.1738Z" fill="white"/>
</svg>
