<svg width="363" height="100" viewBox="0 0 363 100" fill="none" xmlns="http://www.w3.org/2000/svg">
<g clip-path="url(#clip0_723_156)">
<path d="M289.465 30.708V45.557H274.666V30.708H266.145V69.6154H274.666V53.0403H289.465V69.6154H297.986V30.708H289.465Z" fill="white"/>
<path d="M100.461 100H0V0H100.461V100ZM73.0664 30.708C67.4643 29.894 62.7925 30.2177 59.6191 30.708C56.7396 31.1494 55.0938 31.7383 55.0938 31.7383V68.9092C55.1046 68.9122 56.3867 69.2734 58.6494 69.6055C61.1274 69.9683 64.781 70.292 69.2471 70.0566C84.0459 69.1542 89.1092 60.4747 89.1094 50.1572C89.1094 39.8395 83.7619 32.2576 73.0762 30.708H73.0664ZM15.9277 69.6152H24.4482V53.04H39.248V69.6152H47.7695V30.708H39.248V45.5576H24.4482V30.708H15.9277V69.6152ZM63.6152 38.0537C64.8699 37.8574 70.3837 37.1523 74.5654 39.0352C79.3153 41.1735 81.8123 48.2443 78.8252 56.4727C76.4159 63.0926 67.1514 62.6717 63.6152 62.25V38.0537Z" fill="white"/>
<path d="M165.126 41.3202C160.258 38.2405 153.696 39.9471 152.716 40.2217V25.9023L144.195 27.452V69.6156H152.716V47.2146C154.068 46.6262 156.948 46.4594 158.289 46.7831C161.806 47.8717 161.316 54.1978 161.316 54.1978V69.6156H169.69V53.4818C169.69 52.55 170.405 44.645 165.126 41.3202Z" fill="white"/>
<path d="M225.672 62.2793C225.672 62.2793 220.344 64.0741 217.826 62.7991C216.455 62.1027 215.887 60.3079 215.662 58.8171V47.0086H225.75V40.0843H215.662V31.375L207.141 32.8364V56.9439C207.288 59.2487 207.621 62.7697 208.385 64.5449C209.295 66.6535 211.117 68.6347 213.928 69.6057C219.442 71.7242 226.876 68.8113 226.876 68.8113L225.681 62.2695L225.672 62.2793Z" fill="white"/>
<path d="M361.571 46.8517C359.592 41.84 354.842 39.4076 350.699 39.4371C347.192 39.4665 344.754 40.4669 344.088 40.7709V25.9612L335.566 27.3833V68.625L340.483 69.5959C343.422 70.1942 347.232 70.6846 350.63 70.2334C357.359 69.3311 360.493 64.6921 361.884 61.3672C363.275 58.0424 363.569 51.8635 361.58 46.8419L361.571 46.8517ZM351.228 62.2205C349.014 63.3778 346.526 63.3386 343.823 62.858V62.8384L343.833 47.9306C343.833 47.9306 346.507 46.0769 349.455 46.5085C352.403 46.94 354.46 49.6862 354.509 53.727C354.558 57.7678 353.461 61.0338 351.218 62.2107L351.228 62.2205Z" fill="white"/>
<path d="M304.184 40.1236H312.431V55.2668C312.431 55.2668 311.784 62.3284 316.319 63.1228C318.983 63.3484 321.255 62.8972 321.255 62.8972V40.1138H329.581V68.6053C329.581 68.6053 323.479 70.5277 315.3 70.204C307.132 69.8803 304.761 64.2899 304.438 59.9745C304.115 55.6591 304.193 46.6261 304.193 46.6261V40.1138L304.184 40.1236Z" fill="white"/>
<path d="M138.925 36.9752C137.201 33.3071 132.01 30.5413 124.312 30.2765C120.443 30.149 117.005 30.4138 114.547 30.708C112.108 31.0023 110.629 31.3259 110.629 31.3259V69.6155H119.15V56.6888C120.286 56.6398 124.41 56.4436 127.221 56.2573C130.512 56.0317 135.928 54.1976 138.357 50.7159C140.786 47.2341 140.639 40.6531 138.915 36.985L138.925 36.9752ZM131.001 45.1941C130.12 48.2639 126.907 48.7347 124.459 49.0289C122.01 49.3232 119.317 49.1564 119.317 49.1564V37.8383C119.317 37.8383 124.586 37.4656 127.573 38.2306C130.561 38.9956 131.873 42.1243 130.992 45.1941H131.001Z" fill="white"/>
<path d="M242.617 39.3489C236.3 39.3489 228.043 43.4583 228.043 55.4434C228.445 66.1731 236.3 70.4885 242.617 70.4885C248.934 70.4885 257.044 66.33 257.044 54.9236C257.044 43.5172 248.934 39.3587 242.617 39.3587V39.3489ZM242.617 63.221C239.248 63.221 236.515 59.7981 236.515 54.9138C236.78 49.2547 239.248 46.6066 242.617 46.6066C245.986 46.6066 248.719 49.5097 248.719 54.9138C248.435 60.4062 245.986 63.221 242.617 63.221Z" fill="white"/>
<path d="M188.504 39.3489C182.186 39.3489 173.93 43.4583 173.93 55.4434C174.331 66.1731 182.186 70.4885 188.504 70.4885C194.821 70.4885 202.931 66.33 202.931 54.9236C202.931 43.5172 194.821 39.3587 188.504 39.3587V39.3489ZM188.504 63.221C185.135 63.221 182.402 59.7981 182.402 54.9138C182.666 49.2547 185.135 46.6066 188.504 46.6066C191.873 46.6066 194.606 49.5097 194.606 54.9138C194.322 60.4062 191.873 63.221 188.504 63.221Z" fill="white"/>
</g>
<defs>
<clipPath id="clip0_723_156">
<rect width="363" height="100" fill="white"/>
</clipPath>
</defs>
</svg>
