<svg width="700" height="100" viewBox="0 0 700 100" fill="none" xmlns="http://www.w3.org/2000/svg">
<path d="M118.994 48.9726V72.7595H95.208V25.1663H23.8086V1.37939H71.4015C97.678 1.37939 118.994 22.6962 118.994 48.9726Z" fill="white"/>
<path d="M95.19 72.779V96.5655H47.5969C21.3206 96.5655 0.00390625 75.249 0.00390625 48.9724V25.1855H23.7907V72.779H95.1705H95.19Z" fill="white"/>
<path fill-rule="evenodd" clip-rule="evenodd" d="M178.469 31.9155C178.469 51.2485 178.547 63.2295 178.683 64.591C179.617 73.8685 183.02 81.5315 189.03 87.736C195.896 94.8545 205.212 98.6275 215.832 98.6275H218.341V80.734L216.629 80.6175C208.985 80.0535 202.022 74.666 199.513 67.372C198.502 64.3965 198.405 63.2295 198.405 52.279V42.0877H218.341V25.1665H198.405V1.41846H178.469V31.9544V31.9155ZM262.724 23.2798C244.734 25.147 230.691 37.7114 227.56 54.7495C227.093 57.3165 227.015 64.046 227.443 66.419C228.493 72.3705 230.613 77.5445 233.861 82.115C235.728 84.721 239.541 88.611 242.166 90.5755C247.359 94.4655 253.447 97.0525 259.962 98.1415C262.627 98.589 268.015 98.7445 270.757 98.4525C285.947 96.8385 298.492 87.483 303.782 73.888C306.505 66.886 306.894 58.4835 304.852 51.151C303.102 44.9078 299.931 39.5592 295.069 34.7357C289.02 28.7258 282.018 25.1664 273.266 23.6883C270.387 23.202 265.389 23.0076 262.724 23.2798ZM348.224 23.2993C343.576 23.7272 338.655 25.147 334.629 27.2281C323.621 32.888 316.561 43.5074 315.121 56.558C314.985 57.8225 314.907 65.602 314.907 77.5635V96.566H334.843V77.525C334.843 56.9275 334.843 56.558 335.971 53.1545C337.994 46.9695 342.273 42.8461 348.03 41.5236C350.267 41.0179 353.884 41.0179 356.121 41.5236C363.123 43.1379 367.907 48.9338 369.094 57.239C369.21 58.114 369.308 66.1855 369.308 77.622V96.566H389.244V77.5635C389.244 58.075 389.185 56.461 388.388 52.493C384.615 33.6854 367.83 21.4905 348.224 23.2993ZM433.608 23.2798C415.617 25.147 401.575 37.7114 398.443 54.7495C397.976 57.3165 397.899 64.046 398.326 66.419C399.377 72.3705 401.516 77.5445 404.745 82.115C406.612 84.721 410.424 88.611 413.05 90.5755C418.243 94.4655 424.33 97.0525 430.846 98.1415C433.511 98.589 438.898 98.7445 441.641 98.4525C456.831 96.8385 469.376 87.483 474.666 73.888C477.389 66.886 477.778 58.4835 475.736 51.151C473.985 44.9078 470.815 39.5592 465.952 34.7357C459.904 28.7258 452.902 25.1664 444.15 23.6883C441.271 23.202 436.272 23.0076 433.608 23.2798ZM518.68 23.202C513.68 23.6299 509.44 24.7775 505.395 26.7808C501.8 28.5507 499.386 30.2623 496.644 32.9658C490.673 38.859 486.938 47.0278 485.985 56.2665C485.849 57.589 485.772 65.68 485.772 77.486V96.566H505.71V77.408C505.71 54.263 505.71 54.3215 508.14 49.2839C509.13 47.2223 509.48 46.7167 510.98 45.2385C512.845 43.3713 515.005 42.146 517.55 41.4847C519.48 40.979 523.815 40.9985 525.76 41.5041C531.44 42.9823 535.21 47.2807 536.925 54.2045C537.35 55.9355 537.37 56.422 537.43 76.2605L537.51 96.5465H557.405L557.48 76.786C557.56 57.764 557.58 56.947 557.99 55.0605C559.64 47.4752 563.415 42.9823 569.405 41.4847C571.64 40.9206 575.94 41.0179 578.1 41.6598C584.265 43.5075 588.02 48.545 589.105 56.5C589.34 58.2505 589.4 62.315 589.4 77.6025V96.5465H609.355L609.275 76.358C609.2 58.464 609.16 55.936 608.85 54.127C607.1 44.0521 602.875 36.3889 595.935 30.6902C588.115 24.2912 576.6 21.6461 566.195 23.8828C560.11 25.1859 554.585 28.1812 549.935 32.6546L547.545 34.9691L545.15 32.6741C538.015 25.8083 528.325 22.3463 518.68 23.1826V23.202ZM653.7 23.2798C635.71 25.147 621.665 37.7114 618.535 54.7495C618.065 57.3165 618.01 64.046 618.42 66.419C619.47 72.3705 621.59 77.5445 624.835 82.115C626.705 84.721 630.515 88.611 633.14 90.5755C638.355 94.4655 644.42 97.0525 650.935 98.1415C653.6 98.589 658.99 98.7445 661.73 98.4525C676.92 96.8385 689.465 87.483 694.755 73.888C697.48 66.886 697.87 58.4835 695.825 51.151C694.075 44.9078 690.905 39.5592 686.045 34.7357C679.995 28.7258 672.975 25.1664 664.24 23.6883C661.36 23.202 656.365 23.0076 653.7 23.2798ZM271.282 41.6403C273.655 42.2238 276.903 43.8186 278.867 45.394C281.921 47.8447 284.605 51.968 285.616 55.78C286.161 57.842 286.375 61.79 286.025 63.9295C285.033 70.309 280.89 75.9105 275.114 78.692C271.963 80.209 270.465 80.5395 266.595 80.5395C263.755 80.5395 263.036 80.462 261.635 80.073C254.575 78.05 249.635 73.071 247.554 65.855C247.145 64.4545 247.087 63.774 247.087 60.8175C247.087 56.772 247.437 55.294 249.032 52.046C251.833 46.3665 256.987 42.5156 263.308 41.3097C265.408 40.9207 268.909 41.0567 271.243 41.6208L271.282 41.6403ZM442.166 41.6403C444.539 42.2238 447.787 43.8186 449.751 45.394C452.805 47.8447 455.489 51.968 456.5 55.78C457.045 57.842 457.259 61.79 456.908 63.9295C455.917 70.309 451.774 75.9105 445.997 78.692C442.846 80.209 441.349 80.5395 437.478 80.5395C434.639 80.5395 433.919 80.462 432.519 80.073C425.459 78.05 420.518 73.071 418.437 65.855C418.029 64.4545 417.97 63.774 417.97 60.8175C417.97 56.772 418.321 55.294 419.915 52.046C422.716 46.3665 427.87 42.5156 434.191 41.3097C436.292 40.9207 439.793 41.0567 442.127 41.6208L442.166 41.6403ZM662.275 41.6403C664.65 42.2238 667.895 43.8186 669.86 45.394C672.915 47.8447 675.6 51.968 676.61 55.78C677.155 57.842 677.35 61.79 677.02 63.9295C676.025 70.309 671.885 75.9105 666.11 78.692C662.955 80.209 661.46 80.5395 657.59 80.5395C654.75 80.5395 654.03 80.462 652.63 80.073C645.57 78.05 640.65 73.071 638.55 65.855C638.14 64.4545 638.08 63.774 638.1 60.8175C638.1 56.772 638.43 55.294 640.045 52.046C642.845 46.3665 648 42.5156 654.32 41.3097C656.42 40.9207 659.925 41.0567 662.275 41.6208V41.6403Z" fill="white"/>
</svg>
